<svg width="25" height="25" viewBox="0 0 25 25" fill="none" xmlns="http://www.w3.org/2000/svg">
<path d="M12.7157 3.71559L13.0511 3.04477L12.7157 2.87707L12.3803 3.04477L12.7157 3.71559ZM21.7157 8.21559H22.4657V7.75207L22.0511 7.54477L21.7157 8.21559ZM21.7157 17.2156L22.0511 17.8864L22.4657 17.6791V17.2156H21.7157ZM12.7157 21.7156L12.3803 22.3864L12.7157 22.5541L13.0511 22.3864L12.7157 21.7156ZM3.7157 17.2156H2.9657V17.6791L3.38029 17.8864L3.7157 17.2156ZM3.7157 8.21559L3.38029 7.54477L2.9657 7.75207V8.21559H3.7157ZM16.9657 13.7156C16.9657 14.1298 17.3015 14.4656 17.7157 14.4656C18.1299 14.4656 18.4657 14.1298 18.4657 13.7156H16.9657ZM17.7157 10.2156H18.4657V9.75207L18.0511 9.54477L17.7157 10.2156ZM9.05111 5.04477C8.68062 4.85953 8.23012 5.0097 8.04488 5.38018C7.85964 5.75067 8.0098 6.20117 8.38029 6.38641L9.05111 5.04477ZM11.9657 21.2156C11.9657 21.6298 12.3015 21.9656 12.7157 21.9656C13.1299 21.9656 13.4657 21.6298 13.4657 21.2156H11.9657ZM12.3803 4.38641L21.3803 8.88641L22.0511 7.54477L13.0511 3.04477L12.3803 4.38641ZM20.9657 8.21559V17.2156H22.4657V8.21559H20.9657ZM21.3803 16.5448L12.3803 21.0448L13.0511 22.3864L22.0511 17.8864L21.3803 16.5448ZM13.0511 21.0448L4.05111 16.5448L3.38029 17.8864L12.3803 22.3864L13.0511 21.0448ZM4.4657 17.2156V8.21559H2.9657V17.2156H4.4657ZM4.05111 8.88641L13.0511 4.38641L12.3803 3.04477L3.38029 7.54477L4.05111 8.88641ZM21.3803 7.54477L12.3803 12.0448L13.0511 13.3864L22.0511 8.88641L21.3803 7.54477ZM13.0511 12.0448L4.05111 7.54477L3.38029 8.88641L12.3803 13.3864L13.0511 12.0448ZM18.4657 13.7156V10.2156H16.9657V13.7156H18.4657ZM18.0511 9.54477L9.05111 5.04477L8.38029 6.38641L17.3803 10.8864L18.0511 9.54477ZM13.4657 21.2156V12.7156H11.9657V21.2156H13.4657Z" fill="black"/>
</svg>
