<svg width="25" height="25" viewBox="0 0 25 25" fill="none" xmlns="http://www.w3.org/2000/svg">
<path fill-rule="evenodd" clip-rule="evenodd" d="M0.715576 7.46559C0.715576 7.05138 1.05136 6.71559 1.46558 6.71559H3.96558C4.00937 6.71559 4.05288 6.71684 4.09605 6.71931L4.08594 6.71559H13.7156C14.2679 6.71559 14.7156 7.16331 14.7156 7.71559V18.7156L10.185 18.7854C10.0394 17.7716 9.38695 16.9216 8.49268 16.5002C8.10548 16.3177 7.67269 16.2156 7.21558 16.2156C6.75846 16.2156 6.32567 16.3177 5.93847 16.5002C5.58702 16.6658 5.27292 16.8976 5.01225 17.1796C4.88142 17.2032 4.74665 17.2156 4.609 17.2156H4.50655C4.09234 17.2156 3.75655 16.8798 3.75655 16.4656C3.75655 16.0514 4.09234 15.7156 4.50655 15.7156H4.609C5.02321 15.7156 5.359 15.3798 5.359 14.9656C5.359 14.5514 5.02321 14.2156 4.609 14.2156H3.50655H3.46558C3.05136 14.2156 2.71558 13.8798 2.71558 13.4656C2.71558 13.0514 3.05136 12.7156 3.46558 12.7156H3.50655H4.609H4.64997C5.06419 12.7156 5.39997 12.3798 5.39997 11.9656C5.39997 11.5514 5.06419 11.2156 4.64997 11.2156H3.96558H2.46558H2.34676C1.93254 11.2156 1.59676 10.8798 1.59676 10.4656C1.59676 10.0514 1.93254 9.71559 2.34676 9.71559H2.46558H3.96558C4.37979 9.71559 4.71558 9.3798 4.71558 8.96559C4.71558 8.55138 4.37979 8.21559 3.96558 8.21559H1.46558C1.05136 8.21559 0.715576 7.8798 0.715576 7.46559ZM5.44564 7.27088L5.44558 7.21559L5.32168 7.17003C5.36421 7.2022 5.40555 7.23584 5.44564 7.27088ZM22.7156 14.9588C22.7156 14.7104 22.6231 14.4708 22.4561 14.2868L19.5132 11.0436C19.3237 10.8347 19.0547 10.7156 18.7727 10.7156H16.2156V18.7156H16.2571C16.422 17.7327 17.0648 16.9118 17.9385 16.5002C18.3257 16.3177 18.7585 16.2156 19.2156 16.2156C19.2974 16.2156 19.3785 16.2189 19.4586 16.2253C19.8262 16.2547 20.1748 16.3504 20.4927 16.5002C21.3361 16.8976 21.9644 17.6763 22.1552 18.614C22.4871 18.4513 22.7156 18.1101 22.7156 17.7156V14.9588ZM7.21558 17.7156C7.86879 17.7156 8.42449 18.1331 8.63033 18.7159C8.68554 18.8722 8.71558 19.0404 8.71558 19.2156C8.71558 20.044 8.044 20.7156 7.21558 20.7156C6.38715 20.7156 5.71558 20.044 5.71558 19.2156C5.71558 19.0404 5.74562 18.8722 5.80083 18.7159C6.00666 18.1331 6.56236 17.7156 7.21558 17.7156ZM19.2156 17.7156C19.8688 17.7156 20.4245 18.1331 20.6303 18.7159C20.6855 18.8722 20.7156 19.0404 20.7156 19.2156C20.7156 20.044 20.044 20.7156 19.2156 20.7156C18.3871 20.7156 17.7156 20.044 17.7156 19.2156C17.7156 19.0404 17.7456 18.8722 17.8008 18.7159C18.0067 18.1331 18.5624 17.7156 19.2156 17.7156Z" fill="black"/>
</svg>
