<svg width="25" height="25" viewBox="0 0 25 25" fill="none" xmlns="http://www.w3.org/2000/svg">
<path fill-rule="evenodd" clip-rule="evenodd" d="M11.7703 1.88354C11.4337 1.65919 10.9952 1.65964 10.6591 1.8847C10.3231 2.10976 10.1557 2.5151 10.235 2.91171L10.5075 4.27432C7.16312 5.23267 4.71558 8.31336 4.71558 11.9657C4.71558 14.1857 5.62114 16.196 7.08057 17.6443C7.47259 18.0334 8.10575 18.0309 8.49477 17.6389C8.8838 17.2469 8.88137 16.6137 8.48935 16.2247C7.3928 15.1365 6.71558 13.6311 6.71558 11.9657C6.71558 9.28427 8.47456 7.01366 10.9016 6.2448L11.235 7.91171C11.3143 8.30832 11.6247 8.61809 12.0215 8.69658C12.4183 8.77507 12.8233 8.60682 13.0476 8.27029L15.0476 5.27029C15.354 4.81076 15.2298 4.18989 14.7703 3.88354L11.7703 1.88354ZM19.3506 7.25588C18.9586 6.86685 18.3254 6.86928 17.9364 7.2613C17.5474 7.65332 17.5498 8.28648 17.9418 8.6755C19.0384 9.76368 19.7156 11.2691 19.7156 12.9345C19.7156 15.6354 17.931 17.9195 15.4766 18.6719L15.1962 17.2695C15.1168 16.8729 14.8064 16.5631 14.4096 16.4846C14.0129 16.4061 13.6079 16.5744 13.3835 16.9109L11.3835 19.9109C11.0772 20.3704 11.2013 20.9913 11.6609 21.2976L14.6609 23.2976C14.9974 23.522 15.436 23.5215 15.772 23.2965C16.1081 23.0714 16.2755 22.6661 16.1962 22.2695L15.8704 20.6409C19.242 19.7001 21.7156 16.6062 21.7156 12.9345C21.7156 10.7145 20.81 8.70416 19.3506 7.25588Z" fill="black"/>
</svg>
